# xmcd
#
# Track frame offsets:
#	150
#	9880
#	16480
#	20882
#	26015
#	32457
#	35775
#	40482
#	46642
#	60170
#	63652
#	74035
#	78715
#	96332
#	103347
#	108637
#	115202
#	120000
#	127890
#	133630
#	136890
#	142100
#	143290
#	146957
#	152272
#	155772
#	161742
#	164152
#	169257
#	174920
#	181620
#	187797
#	196792
#	202757
#	206020
#	212117
#	217435
#	227420
#	241112
#	246805
#	252745
#	258122
#	264567
#	273990
#	291412
#	308997
#
# Disc length: 4199 seconds
#
# Revision: 1
# Processed by: cddbd v1.5.1PL0 Copyright (c) Steve Scherf et al.
# Submitted via: CDex 1.50Beta5
#
DISCID=a210652e
DTITLE=サウンドトラック - 龍騎CB3
DYEAR=1900
DGENRE=Soundtrack
TTITLE0=1.仮面ライダーファム
TTITLE1=2.約束A
TTITLE2=3.結婚詐欺師…!?
TTITLE3=4.霧島美穂-陰
TTITLE4=5.霧島美穂-光
TTITLE5=6.モンスター
TTITLE6=7.仮面ライダーファム(変身イメージ編集)
TTITLE7=8.ゲームは止まらない!
TTITLE8=9.約束B
TTITLE9=10.欲望B
TTITLE10=11.始まり
TTITLE11=12.変身!
TTITLE12=13.神崎士郎
TTITLE13=14.兄弟B
TTITLE14=15.決意
TTITLE15=16.約束A-B
TTITLE16=17.約束したのに
TTITLE17=18.契約
TTITLE18=19.孤独の騎士
TTITLE19=20.約束B(優衣の運命イメージ編集)
TTITLE20=21.新たな存在
TTITLE21=22.クライマックス4(リュウガ登場イメージ編集)
TTITLE22=23.王蛇
TTITLE23=24.クライマックス4
TTITLE24=25.欲望
TTITLE25=26.脱落
TTITLE26=27.クライマックス1
TTITLE27=28.新しい命
TTITLE28=29.邪なる者
TTITLE29=30.ドラグレッダー
TTITLE30=31.ゲームは止まらない!
TTITLE31=32.兄弟
TTITLE32=33.ミラーワールド
TTITLE33=34.約束B
TTITLE34=35.クライマックス6
TTITLE35=36.クライマックス4
TTITLE36=37.クライマックス10
TTITLE37=38.モンスター出現
TTITLE38=39.クライマックス8
TTITLE39=40.ファイナルベント!
TTITLE40=41.コントラクト
TTITLE41=42.クライマックス9
TTITLE42=43.Alive A life(Advent Mix/movie size)
TTITLE43=44.ヒロイックノスタルジー
TTITLE44=45.神崎士郎B
TTITLE45=46.クライマックス6-B
EXTD=
EXTT0=
EXTT1=
EXTT2=
EXTT3=
EXTT4=
EXTT5=
EXTT6=
EXTT7=
EXTT8=
EXTT9=
EXTT10=
EXTT11=
EXTT12=
EXTT13=
EXTT14=
EXTT15=
EXTT16=
EXTT17=
EXTT18=
EXTT19=
EXTT20=
EXTT21=
EXTT22=
EXTT23=
EXTT24=
EXTT25=
EXTT26=
EXTT27=
EXTT28=
EXTT29=
EXTT30=
EXTT31=
EXTT32=
EXTT33=
EXTT34=
EXTT35=
EXTT36=
EXTT37=
EXTT38=
EXTT39=
EXTT40=
EXTT41=
EXTT42=
EXTT43=
EXTT44=
EXTT45=
PLAYORDER=
